<svg xmlns="http://www.w3.org/2000/svg" viewBox="0 0 100 100" fill="#e2e8f0">
  <path d="M50 10 C46 10 43 13 43 17 L43 22 L28 22 C20 22 15 27 15 35 L15 50 C15 58 20 63 28 63 L72 63 C80 63 85 58 85 50 L85 35 C85 27 80 22 72 22 L57 22 L57 17 C57 13 54 10 50 10 Z M33 35 C36.8 35 40 38.2 40 42 C40 45.8 36.8 49 33 49 C29.2 49 26 45.8 26 42 C26 38.2 29.2 35 33 35 Z M67 35 C70.8 35 74 38.2 74 42 C74 45.8 70.8 49 67 49 C63.2 49 60 45.8 60 42 C60 38.2 63.2 35 67 35 Z M12 90 C12 75 25 68 50 68 C75 68 88 75 88 90 C88 95 82 95 50 95 C18 95 12 95 12 90 Z" />
</svg>
